<svg id="Layer_1" data-name="Layer 1" xmlns="http://www.w3.org/2000/svg" viewBox="0 0 152.86 52.44"><defs><style>.cls-1{fill:#fff;}</style></defs><path class="cls-1" d="M8.42,29.68V7.36h5.12a9.42,9.42,0,0,1,2.64.33,4.66,4.66,0,0,1,1.86,1,4.19,4.19,0,0,1,1.1,1.75A7.7,7.7,0,0,1,19.5,13a7.33,7.33,0,0,1-.35,2.38,3.47,3.47,0,0,1-1,1.59,3.64,3.64,0,0,1-1.8.74,4.78,4.78,0,0,1,2.18,1,4.27,4.27,0,0,1,1.22,1.87,8.25,8.25,0,0,1,.4,2.74,9.73,9.73,0,0,1-.33,2.62,5.18,5.18,0,0,1-1,2A4.69,4.69,0,0,1,17,29.22a6.57,6.57,0,0,1-2.58.46Zm3.11-13h1.85a4.7,4.7,0,0,0,2.07-.37,2.1,2.1,0,0,0,1-1.2A6.4,6.4,0,0,0,16.8,13a4.09,4.09,0,0,0-.47-2.23,2.15,2.15,0,0,0-1.46-.87,15.07,15.07,0,0,0-2.59-.18h-.75Zm0,10.77h2.1c1.39,0,2.33-.32,2.79-1a5.53,5.53,0,0,0,.71-3.16A6.48,6.48,0,0,0,16.75,21a2.75,2.75,0,0,0-1.18-1.43A4.28,4.28,0,0,0,13.38,19H11.53Z"/><path class="cls-1" d="M28.56,29.92A6.52,6.52,0,0,1,25,29,4.83,4.83,0,0,1,23,26.52a11.66,11.66,0,0,1-.58-3.84V14.22a10.69,10.69,0,0,1,.6-3.79A4.65,4.65,0,0,1,25,8a6.69,6.69,0,0,1,3.59-.84A6.52,6.52,0,0,1,32.14,8a4.79,4.79,0,0,1,1.92,2.42,10.87,10.87,0,0,1,.59,3.78V22.7a11.25,11.25,0,0,1-.59,3.81A5,5,0,0,1,32.14,29,6.26,6.26,0,0,1,28.56,29.92Zm0-2.45A3,3,0,0,0,30.44,27a2.56,2.56,0,0,0,.85-1.43,9.27,9.27,0,0,0,.22-2.16V13.58a8.83,8.83,0,0,0-.22-2.13,2.39,2.39,0,0,0-.85-1.38,3.1,3.1,0,0,0-1.88-.48,3.18,3.18,0,0,0-1.89.48,2.31,2.31,0,0,0-.86,1.38,8.83,8.83,0,0,0-.22,2.13v9.79a9.27,9.27,0,0,0,.22,2.16A2.46,2.46,0,0,0,26.67,27,3,3,0,0,0,28.56,27.47Z"/><path class="cls-1" d="M36.5,29.68,41.24,7.36h3L49,29.68H46.06l-1-5.62H40.49l-1.07,5.62Zm4.41-7.86h3.72L42.75,11.76Z"/><path class="cls-1" d="M50.58,29.68V27.44L57.14,9.59H51V7.36h9.45V8.71L53.53,27.44h6.91v2.24Z"/><path class="cls-1" d="M69.07,29.68V7.36H77.7V9.59H72.18V17h4.28v2.2H72.18V29.68Z"/><path class="cls-1" d="M79.84,29.68V7.36h4.5A9.84,9.84,0,0,1,88,8a4.12,4.12,0,0,1,2.16,1.9,7.23,7.23,0,0,1,.7,3.43,9.62,9.62,0,0,1-.27,2.36,4.76,4.76,0,0,1-.88,1.79,3.52,3.52,0,0,1-1.6,1.06l3.17,11.19h-3L85.38,19.21H83V29.68ZM83,17h1.18a5.89,5.89,0,0,0,2.15-.33,2.17,2.17,0,0,0,1.21-1.13,5.16,5.16,0,0,0,.39-2.23,4.4,4.4,0,0,0-.72-2.82,3.56,3.56,0,0,0-2.83-.87H83Z"/><path class="cls-1" d="M94.15,29.68V7.36h8.65V9.67H97.26v7.39h4.49v2.2H97.26v8.18h5.59v2.24Z"/><path class="cls-1" d="M111.12,29.92a6.16,6.16,0,0,1-3.72-1,4.81,4.81,0,0,1-1.76-2.71,15.62,15.62,0,0,1-.47-4.1V7.36h3V22.29a16.14,16.14,0,0,0,.2,2.62,3.49,3.49,0,0,0,.84,1.87,3.1,3.1,0,0,0,3.9,0,3.47,3.47,0,0,0,.82-1.87,16.14,16.14,0,0,0,.2-2.62V7.36h3V22.15a16.05,16.05,0,0,1-.47,4.1A4.9,4.9,0,0,1,114.83,29,6.12,6.12,0,0,1,111.12,29.92Z"/><path class="cls-1" d="M120.33,29.68V7.36h2.12l6.34,14.82V7.36h2.59V29.68h-2L123,14.44V29.68Z"/><path class="cls-1" d="M134.88,29.68V7.36h4.85a8.57,8.57,0,0,1,3.92.75,4.35,4.35,0,0,1,2.07,2.28,10.08,10.08,0,0,1,.62,3.77v8.21a11.36,11.36,0,0,1-.62,4,4.76,4.76,0,0,1-2,2.47,7.22,7.22,0,0,1-3.74.84ZM138,27.44h1.76a3.57,3.57,0,0,0,2.43-.66,3,3,0,0,0,.87-1.93,26.38,26.38,0,0,0,.15-3.05V14.55a15,15,0,0,0-.22-2.81,2.34,2.34,0,0,0-1-1.57,4.28,4.28,0,0,0-2.34-.5H138Z"/><path class="cls-1" d="M8.54,44.2V33.67h2.29a4.12,4.12,0,0,1,1.85.35,2.07,2.07,0,0,1,1,1.08A4.8,4.8,0,0,1,14,36.88v3.87a5.44,5.44,0,0,1-.29,1.89,2.29,2.29,0,0,1-.95,1.16,3.45,3.45,0,0,1-1.76.4ZM10,43.14h.83A1.68,1.68,0,0,0,12,42.83a1.46,1.46,0,0,0,.41-.91c0-.4.07-.88.07-1.44V37.06a6.75,6.75,0,0,0-.11-1.33,1.15,1.15,0,0,0-.45-.74,2.11,2.11,0,0,0-1.11-.23H10Z"/><path class="cls-1" d="M15.47,44.2V33.67h1.44V44.2Z"/><path class="cls-1" d="M18.62,44.2V33.67h2.11a4.61,4.61,0,0,1,1.75.28,1.91,1.91,0,0,1,1,.89,3.43,3.43,0,0,1,.33,1.62,4.23,4.23,0,0,1-.13,1.11,2.19,2.19,0,0,1-.42.85,1.66,1.66,0,0,1-.75.5L24,44.2H22.61l-1.38-4.94H20.08V44.2Zm1.46-6h.56a2.89,2.89,0,0,0,1-.15,1,1,0,0,0,.57-.54,2.48,2.48,0,0,0,.18-1,2.06,2.06,0,0,0-.34-1.33,1.7,1.7,0,0,0-1.34-.41h-.65Z"/><path class="cls-1" d="M25.36,44.2V33.67h4.08v1.09H26.83v3.48H29v1H26.83v3.86h2.64V44.2Z"/><path class="cls-1" d="M33.29,44.31a2.82,2.82,0,0,1-1.73-.46,2.49,2.49,0,0,1-.86-1.26,6.11,6.11,0,0,1-.24-1.77V37.1a6.46,6.46,0,0,1,.24-1.86A2.26,2.26,0,0,1,31.56,34a3.65,3.65,0,0,1,3.3-.07,2.05,2.05,0,0,1,.83,1,4.6,4.6,0,0,1,.25,1.62v.84H34.55V36.7c0-.39,0-.74,0-1a1.12,1.12,0,0,0-.32-.69,1.24,1.24,0,0,0-.87-.25,1.29,1.29,0,0,0-.91.27,1.19,1.19,0,0,0-.37.75,6.35,6.35,0,0,0-.09,1.14v4.17a4.59,4.59,0,0,0,.13,1.25,1.11,1.11,0,0,0,.43.66,1.47,1.47,0,0,0,.81.2,1.14,1.14,0,0,0,.85-.27,1.27,1.27,0,0,0,.33-.73,8.88,8.88,0,0,0,.06-1.1v-.78h1.39v.78a5.46,5.46,0,0,1-.23,1.7,2.13,2.13,0,0,1-.81,1.14A2.66,2.66,0,0,1,33.29,44.31Z"/><path class="cls-1" d="M38.51,44.2V34.76H36.72V33.67h5v1.09H40V44.2Z"/><path class="cls-1" d="M45.41,44.31a3.12,3.12,0,0,1-1.7-.41,2.27,2.27,0,0,1-.91-1.19,5.27,5.27,0,0,1-.28-1.82v-4a5.19,5.19,0,0,1,.28-1.78A2.28,2.28,0,0,1,43.71,34a3.22,3.22,0,0,1,1.7-.39,3.09,3.09,0,0,1,1.69.4,2.28,2.28,0,0,1,.9,1.14,5,5,0,0,1,.28,1.78v4A5.14,5.14,0,0,1,48,42.7a2.36,2.36,0,0,1-.9,1.19A3,3,0,0,1,45.41,44.31Zm0-1.15a1.38,1.38,0,0,0,.88-.24,1.21,1.21,0,0,0,.41-.68,5,5,0,0,0,.1-1V36.6a4.75,4.75,0,0,0-.1-1,1.13,1.13,0,0,0-.41-.65,1.44,1.44,0,0,0-.88-.23,1.48,1.48,0,0,0-.89.23,1.08,1.08,0,0,0-.41.65,4.13,4.13,0,0,0-.11,1v4.62a4.36,4.36,0,0,0,.11,1,1.16,1.16,0,0,0,.41.68A1.41,1.41,0,0,0,45.41,43.16Z"/><path class="cls-1" d="M49.72,44.2V33.67h2.12a4.61,4.61,0,0,1,1.75.28,2,2,0,0,1,1,.89,3.43,3.43,0,0,1,.33,1.62,4.7,4.7,0,0,1-.13,1.11,2.19,2.19,0,0,1-.42.85,1.66,1.66,0,0,1-.75.5l1.49,5.28H53.72l-1.38-4.94H51.19V44.2Zm1.47-6h.56a2.89,2.89,0,0,0,1-.15,1,1,0,0,0,.57-.54,2.48,2.48,0,0,0,.18-1,2.06,2.06,0,0,0-.34-1.33,1.7,1.7,0,0,0-1.34-.41h-.65Z"/><path class="cls-1" d="M62.14,44.31a3.12,3.12,0,0,1-1.7-.41,2.27,2.27,0,0,1-.91-1.19,5.27,5.27,0,0,1-.28-1.82v-4a5.19,5.19,0,0,1,.28-1.78A2.28,2.28,0,0,1,60.44,34a3.22,3.22,0,0,1,1.7-.39,3.09,3.09,0,0,1,1.69.4,2.23,2.23,0,0,1,.9,1.14A5,5,0,0,1,65,36.9v4a5.14,5.14,0,0,1-.28,1.79,2.31,2.31,0,0,1-.9,1.19A3,3,0,0,1,62.14,44.31Zm0-1.15a1.38,1.38,0,0,0,.88-.24,1.21,1.21,0,0,0,.41-.68,4.4,4.4,0,0,0,.1-1V36.6a4.17,4.17,0,0,0-.1-1A1.13,1.13,0,0,0,63,35a1.44,1.44,0,0,0-.88-.23,1.48,1.48,0,0,0-.89.23,1.13,1.13,0,0,0-.41.65,4.17,4.17,0,0,0-.1,1v4.62a4.4,4.4,0,0,0,.1,1,1.21,1.21,0,0,0,.41.68A1.41,1.41,0,0,0,62.14,43.16Z"/><path class="cls-1" d="M66.46,44.2V33.67h4.06v1h-2.6v3.51h2v1h-2V44.2Z"/><path class="cls-1" d="M74.52,44.2V33.67h2.61a2.86,2.86,0,0,1,1.51.34,2,2,0,0,1,.83,1,4.26,4.26,0,0,1,.26,1.57A3.39,3.39,0,0,1,79.44,38a2.14,2.14,0,0,1-.87.94,2.83,2.83,0,0,1-1.43.34H76v4.9Zm1.46-6h.68a2.69,2.69,0,0,0,1-.14.91.91,0,0,0,.52-.5,2.66,2.66,0,0,0,.16-1,4.87,4.87,0,0,0-.11-1.16.83.83,0,0,0-.46-.55,2.77,2.77,0,0,0-1.1-.16H76Z"/><path class="cls-1" d="M80.75,44.2V33.67h1.47v4.55h2.71V33.67H86.4V44.2H84.93V39.27H82.22V44.2Z"/><path class="cls-1" d="M90.74,44.31A3.18,3.18,0,0,1,89,43.9a2.31,2.31,0,0,1-.9-1.19,5.27,5.27,0,0,1-.28-1.82v-4a5,5,0,0,1,.28-1.78A2.28,2.28,0,0,1,89,34a3.22,3.22,0,0,1,1.7-.39,3.09,3.09,0,0,1,1.69.4,2.28,2.28,0,0,1,.9,1.14,5,5,0,0,1,.28,1.78v4a5.14,5.14,0,0,1-.28,1.79,2.36,2.36,0,0,1-.9,1.19A3,3,0,0,1,90.74,44.31Zm0-1.15a1.38,1.38,0,0,0,.88-.24,1.21,1.21,0,0,0,.41-.68,5,5,0,0,0,.1-1V36.6a4.75,4.75,0,0,0-.1-1,1.13,1.13,0,0,0-.41-.65,1.44,1.44,0,0,0-.88-.23,1.48,1.48,0,0,0-.89.23,1.08,1.08,0,0,0-.41.65,4.13,4.13,0,0,0-.11,1v4.62a4.36,4.36,0,0,0,.11,1,1.16,1.16,0,0,0,.41.68A1.41,1.41,0,0,0,90.74,43.16Z"/><path class="cls-1" d="M96.21,44.2V34.76H94.43V33.67h5v1.09H97.68V44.2Z"/><path class="cls-1" d="M103.11,44.31a3.14,3.14,0,0,1-1.7-.41,2.33,2.33,0,0,1-.91-1.19,5.54,5.54,0,0,1-.27-1.82v-4a5,5,0,0,1,.28-1.78,2.23,2.23,0,0,1,.91-1.15,3.18,3.18,0,0,1,1.69-.39,3.06,3.06,0,0,1,1.69.4,2.3,2.3,0,0,1,.91,1.14A5.24,5.24,0,0,1,106,36.9v4a5.38,5.38,0,0,1-.28,1.79,2.38,2.38,0,0,1-.91,1.19A3,3,0,0,1,103.11,44.31Zm0-1.15a1.41,1.41,0,0,0,.89-.24,1.2,1.2,0,0,0,.4-.68,4.36,4.36,0,0,0,.11-1V36.6a4.13,4.13,0,0,0-.11-1A1.12,1.12,0,0,0,104,35a1.48,1.48,0,0,0-.89-.23,1.5,1.5,0,0,0-.89.23,1.13,1.13,0,0,0-.41.65,4.17,4.17,0,0,0-.1,1v4.62a4.4,4.4,0,0,0,.1,1,1.21,1.21,0,0,0,.41.68A1.43,1.43,0,0,0,103.11,43.16Z"/><path class="cls-1" d="M109.94,44.33a2.6,2.6,0,0,1-1.58-.43,2.41,2.41,0,0,1-.86-1.22,6.18,6.18,0,0,1-.27-1.94V37.22a7,7,0,0,1,.25-2,2.22,2.22,0,0,1,.85-1.25,3.05,3.05,0,0,1,1.73-.42,3.32,3.32,0,0,1,1.59.33,2,2,0,0,1,.88,1,4.74,4.74,0,0,1,.27,1.72V37h-1.38v-.32a5.79,5.79,0,0,0-.09-1.13,1.05,1.05,0,0,0-.37-.65,1.48,1.48,0,0,0-.88-.21,1.26,1.26,0,0,0-.94.3,1.32,1.32,0,0,0-.36.81A8,8,0,0,0,108.7,37v3.9a6.37,6.37,0,0,0,.11,1.27,1.29,1.29,0,0,0,.43.75,1.4,1.4,0,0,0,.88.25,1.24,1.24,0,0,0,.88-.28,1.38,1.38,0,0,0,.43-.8,6.23,6.23,0,0,0,.12-1.33V40h-1.34V39h2.67V44.2H112L111.81,43a2.16,2.16,0,0,1-.65,1A1.82,1.82,0,0,1,109.94,44.33Z"/><path class="cls-1" d="M114.39,44.2V33.67h2.11a4.61,4.61,0,0,1,1.75.28,1.91,1.91,0,0,1,1,.89,3.43,3.43,0,0,1,.33,1.62,4.7,4.7,0,0,1-.13,1.11,2.19,2.19,0,0,1-.42.85,1.66,1.66,0,0,1-.75.5l1.49,5.28h-1.41L117,39.26h-1.15V44.2Zm1.46-6h.56a2.89,2.89,0,0,0,1-.15,1,1,0,0,0,.57-.54,2.48,2.48,0,0,0,.18-1,2.06,2.06,0,0,0-.34-1.33,1.7,1.7,0,0,0-1.34-.41h-.65Z"/><path class="cls-1" d="M120.56,44.2l2.24-10.53h1.41l2.25,10.53h-1.39l-.48-2.66h-2.15l-.5,2.66Zm2.08-3.71h1.76l-.89-4.74Z"/><path class="cls-1" d="M127.53,44.2V33.67h2.61a2.86,2.86,0,0,1,1.51.34,2,2,0,0,1,.83,1,4.26,4.26,0,0,1,.26,1.57,3.39,3.39,0,0,1-.29,1.44,2.14,2.14,0,0,1-.87.94,2.8,2.8,0,0,1-1.43.34H129v4.9Zm1.47-6h.67a2.69,2.69,0,0,0,1-.14.88.88,0,0,0,.52-.5,2.47,2.47,0,0,0,.16-1,4.87,4.87,0,0,0-.11-1.16.8.8,0,0,0-.46-.55,2.75,2.75,0,0,0-1.09-.16H129Z"/><path class="cls-1" d="M133.77,44.2V33.67h1.47v4.55h2.7V33.67h1.47V44.2h-1.47V39.27h-2.7V44.2Z"/><path class="cls-1" d="M142.67,44.2V40.48l-2.27-6.81h1.36l1.61,5.08L145,33.67h1.38l-2.26,6.81V44.2Z"/></svg>